<?xml version="1.0" encoding="UTF-8"?>
<!DOCTYPE svg PUBLIC "-//W3C//DTD SVG 1.1//EN" "http://www.w3.org/Graphics/SVG/1.1/DTD/svg11.dtd">
<!-- Creator: CorelDRAW -->
<svg xmlns="http://www.w3.org/2000/svg" xml:space="preserve" width="250mm" height="60mm" version="1.1" style="shape-rendering:geometricPrecision; text-rendering:geometricPrecision; image-rendering:optimizeQuality; fill-rule:evenodd; clip-rule:evenodd"
viewBox="0 0 25000 6000"
 xmlns:xlink="http://www.w3.org/1999/xlink"
 xmlns:xodm="http://www.corel.com/coreldraw/odm/2003">
 <defs>
  <style type="text/css">
   <![CDATA[
    .fil0 {fill:#767F8D;fill-rule:nonzero}
    .fil1 {fill:#4F7E39;fill-rule:nonzero}
   ]]>
  </style>
 </defs>
 <g id="Слой_x0020_1">
  <metadata id="CorelCorpID_0Corel-Layer"/>
  <path class="fil0" d="M8587.18 2013.86l0 946.52 649.6 0c168.54,0 292.93,-23.55 373.3,-70.55 146.96,-86.2 220.47,-220.47 220.47,-402.73 0,-180.25 -61.71,-310.53 -185.18,-390.91 -56.87,-37.25 -113.16,-60.27 -169.02,-69.09 -55.83,-8.82 -129.81,-13.24 -221.93,-13.24l-667.24 0zm-126.4 -111.67l814.26 0c201.78,0 350.71,32.32 446.76,96.95 156.76,105.83 235.11,266.57 235.11,482.1 0,205.76 -72.45,361.56 -217.51,467.34 -109.76,80.41 -252.75,120.55 -429.11,120.55l-723.11 0 0 925.89 -126.4 0 0 -2092.83z"/>
  <path class="fil0" d="M11603.01 2478.31l0 120.55 -44.12 0c-174.45,0 -312.55,67.55 -414.43,202.77 -54.92,72.56 -89.67,150.43 -104.35,233.67 -14.72,83.35 -22.06,186.68 -22.06,310.15l0 649.6 -117.58 0 0 -1505 114.61 0 0 396.85c54.9,-145.01 128.37,-249.36 220.47,-313.08 92.12,-63.63 214.59,-95.51 367.46,-95.51z"/>
  <path class="fil0" d="M13610.59 3163.2c0,-166.59 -46.56,-309.62 -139.58,-429.17 -93.12,-119.49 -225.91,-179.28 -398.34,-179.28 -172.43,0 -304.67,56.82 -396.79,170.46 -92.12,113.65 -147.02,259.66 -164.62,437.99l1099.33 0zm105.83 320.4c-27.48,168.51 -98.01,304.2 -211.66,407.11 -113.64,102.86 -257.68,154.3 -432.09,154.3 -207.72,0 -373.82,-71.53 -498.2,-214.57 -124.48,-142.99 -186.68,-334.13 -186.68,-573.2 0,-239.04 63.2,-433.54 189.6,-583.48 126.39,-149.89 291.45,-224.84 495.28,-224.84 211.66,0 374.31,74.46 487.96,223.4 113.64,148.94 170.51,333.17 170.51,552.59l0 41.19 -1219.88 0c0,190.03 47.48,350.77 142.56,482 95.04,131.34 235.64,197 421.83,197 137.13,0 251.31,-40.14 342.42,-120.56 91.15,-80.31 151.38,-194.01 180.78,-340.94l117.57 0z"/>
  <path class="fil0" d="M15865.15 2490.05l-570.29 1505 -138.1 0 -611.43 -1505 129.32 0 432.15 1058.19c15.63,41.2 37.16,99.49 64.63,174.93 27.39,75.43 45.98,126.87 55.83,154.3 25.49,-74.47 65.63,-186.14 120.53,-335.13l393.89 -1052.29 123.47 0z"/>
  <path class="fil0" d="M17910.89 3163.2c0,-166.59 -46.56,-309.62 -139.58,-429.17 -93.13,-119.49 -225.91,-179.28 -398.33,-179.28 -172.44,0 -304.69,56.82 -396.81,170.46 -92.11,113.65 -147.01,259.66 -164.62,437.99l1099.34 0zm105.83 320.4c-27.47,168.51 -98.02,304.2 -211.66,407.11 -113.64,102.86 -257.69,154.3 -432.08,154.3 -207.74,0 -373.84,-71.53 -498.22,-214.57 -124.48,-142.99 -186.68,-334.13 -186.68,-573.2 0,-239.04 63.2,-433.54 189.6,-583.48 126.4,-149.89 291.45,-224.84 495.3,-224.84 211.65,0 374.29,74.46 487.94,223.4 113.65,148.94 170.52,333.17 170.52,552.59l0 41.19 -1219.89 0c0,190.03 47.48,350.77 142.56,482 95.04,131.34 235.64,197 421.83,197 137.15,0 251.31,-40.14 342.42,-120.56 91.15,-80.31 151.38,-194.01 180.78,-340.94l117.58 0z"/>
  <path class="fil0" d="M19133.69 2490.05l0 332.16c109.72,-248.87 294.91,-373.29 555.57,-373.29 166.53,0 296.38,49.53 389.45,148.4 93.03,99.02 139.64,235.68 139.64,410.09l0 987.64 -117.58 0 0 -928.86c0,-340.98 -146.01,-511.45 -437.98,-511.45 -197.94,0 -344.92,82.28 -440.91,246.9 -56.87,99.93 -85.21,238.08 -85.21,414.49l0 778.92 -117.63 0 0 -1505 114.65 0z"/>
  <path class="fil0" d="M21832.07 2490.05l0 102.91 -323.32 0 0 1019.96c0,45.08 0.47,75.96 1.42,92.6 1.02,16.65 4.48,40.66 10.32,72.02 5.9,31.36 15.67,53.42 29.39,66.13 13.67,12.75 33.82,24.51 60.28,35.29 26.47,10.75 59.22,16.16 98.49,16.16 33.28,0 74.42,-3.93 123.42,-11.75l0 108.7c-56.87,7.82 -103.9,11.76 -141.06,11.76 -58.84,0 -107.8,-7.82 -147.02,-23.5 -39.18,-15.63 -69.05,-32.75 -89.63,-51.41 -20.62,-18.65 -35.77,-49 -45.54,-91.15 -9.83,-42.1 -15.26,-76.87 -16.17,-104.34 -1.06,-27.43 -1.49,-71.55 -1.49,-132.25l0 -35.29 0 -972.93 -279.26 0 0 -102.91 279.26 0 0 -473.22 117.59 0 0 473.22 323.32 0z"/>
  <polygon class="fil1" points="23266.54,3249.45 23266.54,2588.06 22599.3,2588.06 22599.3,2491.11 23266.54,2491.11 23266.54,1832.64 23369.44,1832.64 23369.44,2491.11 24036.69,2491.11 24036.69,2588.06 23369.44,2588.06 23369.44,3249.45 "/>
  <path class="fil1" d="M894.51 1668.53l-370.62 642.34 459.14 0 148.87 -258.09 -237.39 -384.25zm4060.02 -1480l-3205.27 0 -247.58 428.8 -380.01 658.46 241.61 376.02 77.69 -134.12 301.45 -522.64 24.13 -41.7 212.09 -367.24 2746.48 0 1373.11 2378.39 -1239.83 2147.29 232.23 392.74 1466.71 -2540.03 -1602.81 -2775.97zm-1730.7 5154.36l-1245.19 0 -1299.07 -2249.94 -462.81 -6.53 1532.5 2654.05 1693.79 0c13.9,-3.14 23.81,-5.11 28.96,-5.4l-248.18 -392.18z"/>
  <path class="fil1" d="M4508.18 5342.88l239.04 397.58 -814.14 0 -245.61 -397.58 -1339.6 -2168.24 1630.57 0c300.89,-30.91 285.58,-354.47 285.58,-354.47 -14.75,-408.94 -307.7,-443.55 -307.7,-443.55l-2127.1 0 -465.92 -724.82 -241.62 -376.02 379.98 -658.46 240.77 377.72 480.1 752.89 1869.05 0c0,0 831.21,175.26 821.55,1094.92 0,0 5.11,735.01 -791.74,966.44l-535.13 0 921.92 1533.59z"/>
  <path class="fil0" d="M3472 5735.07c-5.15,0.28 -15.07,2.26 -28.93,5.4l-1693.83 0 -1532.47 -2654.05 462.81 6.52 1130.34 15.91 1413.93 2234.04 248.15 392.18z"/>
  <polygon class="fil0" points="1291.25,2310.85 523.89,2310.85 894.51,1668.52 1131.86,2052.8 "/>
 </g>
</svg>
